<svg xmlns="http://www.w3.org/2000/svg" width="61" height="57.956" viewBox="0 0 61 57.956">
  <path id="graph" d="M53.985,2.25a8.127,8.127,0,0,0-4.364,14.986l-5.3,18.571q-.247-.016-.5-.016A8.087,8.087,0,0,0,38.97,37.4l-9.8-8.169a8.131,8.131,0,1,0-13.39,3.216L10.023,43.955q-.378-.035-.757-.034a8.142,8.142,0,1,0,4.6,1.435l5.437-10.874a8.111,8.111,0,0,0,7.619-1.823l9.489,7.909a8.131,8.131,0,1,0,11.766-3.5l5.3-18.569c.164.009.329.016.5.016a8.131,8.131,0,0,0,0-16.261ZM9.266,56.117a4.065,4.065,0,1,1,4.065-4.065,4.065,4.065,0,0,1-4.065,4.065Zm12.2-25.409a4.065,4.065,0,1,1,4.065-4.065A4.065,4.065,0,0,1,21.462,30.708Zm22.36,17.279a4.065,4.065,0,1,1,4.065-4.065,4.065,4.065,0,0,1-4.065,4.065Zm10.163-33.54a4.065,4.065,0,1,1,4.065-4.065,4.065,4.065,0,0,1-4.065,4.065Z" transform="translate(-1.112 -2.25)" fill="#ff6f00"/>
</svg>
