<svg xmlns="http://www.w3.org/2000/svg" width="41.104" height="51.38" viewBox="0 0 41.104 51.38">
  <g id="headset" transform="translate(-4.5)">
    <path id="Tracé_77" d="M25.052,3.425A17.127,17.127,0,0,0,7.925,20.552V35.966H4.5V20.552a20.552,20.552,0,1,1,41.1,0V35.966H42.179V20.552A17.127,17.127,0,0,0,25.052,3.425Z" transform="translate(0)" fill="#ff6f00" fill-rule="evenodd"/>
    <path id="Tracé_78" d="M35.328,19.175a3.425,3.425,0,0,1,3.425-3.425H45.6v13.7a3.425,3.425,0,0,1-3.425,3.425H38.753a3.425,3.425,0,0,1-3.425-3.425Zm-20.552,0a3.425,3.425,0,0,0-3.425-3.425H4.5v13.7a3.425,3.425,0,0,0,3.425,3.425h3.425a3.425,3.425,0,0,0,3.425-3.425Z" transform="translate(0 8.227)" fill="#ff6f00"/>
    <path id="Tracé_79" d="M37.427,19.125a1.713,1.713,0,0,1,1.713,1.713V31.114a8.563,8.563,0,0,1-8.563,8.563H18.588a1.713,1.713,0,1,1,0-3.425H30.576a5.138,5.138,0,0,0,5.138-5.138V20.838A1.713,1.713,0,0,1,37.427,19.125Z" transform="translate(6.464 9.99)" fill="#ff6f00" fill-rule="evenodd"/>
    <path id="Tracé_80" d="M14.625,32.675A3.425,3.425,0,0,1,18.05,29.25h3.425a3.425,3.425,0,1,1,0,6.851H18.05A3.425,3.425,0,0,1,14.625,32.675Z" transform="translate(5.289 15.279)" fill="#ff6f00"/>
  </g>
</svg>
