<svg xmlns="http://www.w3.org/2000/svg" width="45.93" height="45.93" viewBox="0 0 45.93 45.93">
  <path id="puzzle-piece" d="M40.5,22.334a5.425,5.425,0,0,1,5.433,5.435A5.425,5.425,0,0,1,40.5,33.2h-3.28v8.816a4.137,4.137,0,0,1-1.282,3.025,4.255,4.255,0,0,1-3.127,1.282H24.5v-3.28a5.559,5.559,0,0,0-1.743-4.152,5.823,5.823,0,0,0-4.2-1.692,5.779,5.779,0,0,0-5.844,5.844v3.28h-8.3a4.255,4.255,0,0,1-3.127-1.282A4.137,4.137,0,0,1,0,42.019v-8.3H3.28a5.729,5.729,0,0,0,4.2-1.743,5.941,5.941,0,0,0,0-8.407,5.729,5.729,0,0,0-4.2-1.743H0v-8.3a4.137,4.137,0,0,1,1.282-3.025,4.25,4.25,0,0,1,3.127-1.28h8.715V5.931a5.407,5.407,0,0,1,1.59-3.9A5.155,5.155,0,0,1,18.556.395a5.328,5.328,0,0,1,3.9,1.64,5.309,5.309,0,0,1,1.64,3.9v3.28h8.715a4.255,4.255,0,0,1,3.127,1.282,4.137,4.137,0,0,1,1.282,3.025v8.816Z" transform="translate(0 -0.395)" fill="#ff6f00"/>
</svg>
